<svg xmlns="http://www.w3.org/2000/svg" viewBox="0 0 32 32"><g fill="none" stroke="none"><path fill="#BEBEBE" d="M34.96 25.84A19 19 0 0 0 31.27 15.7L23.23 21.65A9 9 0 0 1 24.98 26.45z"/><path fill="#9B9B9B" d="M30.66 14.91A19 19 0 0 0 22.03 8.98L18.86 18.47A9 9 0 0 1 22.94 21.28z"/><path fill="#00D26A" d="M21.61 6.76A21 21 0 0 0 10.39 6.76L13.59 18.33A9 9 0 0 1 18.41 18.33z"/><path fill="#9B9B9B" d="M9.97 8.98A19 19 0 0 0 1.34 14.91L9.06 21.28A9 9 0 0 1 13.14 18.47z"/><path fill="#BEBEBE" d="M0.73 15.7A19 19 0 0 0 -2.96 25.84L7.02 26.45A9 9 0 0 1 8.77 21.65z"/></g></svg>
